<mxfile host="app.diagrams.net" modified="2023-11-09T14:34:21.669Z" agent="Mozilla/5.0 (Windows NT 10.0; Win64; x64) AppleWebKit/537.36 (KHTML, like Gecko) Chrome/119.0.0.0 Safari/537.36" etag="D9PCQ9ujlDG0SBcDjze1" version="22.0.8" type="device">
  <diagram name="Seite-1" id="rAtJ2wgPkWJtmzejgk53">
    <mxGraphModel dx="1050" dy="574" grid="1" gridSize="10" guides="1" tooltips="1" connect="1" arrows="1" fold="1" page="1" pageScale="1" pageWidth="1169" pageHeight="827" math="0" shadow="0">
      <root>
        <mxCell id="0" />
        <mxCell id="1" parent="0" />
        <mxCell id="BfrXMWinJ_1U5JVry1l_-1" value="" style="endArrow=classic;html=1;rounded=0;" edge="1" parent="1">
          <mxGeometry width="50" height="50" relative="1" as="geometry">
            <mxPoint x="50" y="570" as="sourcePoint" />
            <mxPoint x="150" y="570" as="targetPoint" />
            <Array as="points" />
          </mxGeometry>
        </mxCell>
        <mxCell id="BfrXMWinJ_1U5JVry1l_-2" value="" style="endArrow=none;html=1;rounded=0;" edge="1" parent="1">
          <mxGeometry width="50" height="50" relative="1" as="geometry">
            <mxPoint x="150" y="570" as="sourcePoint" />
            <mxPoint x="260" y="510" as="targetPoint" />
          </mxGeometry>
        </mxCell>
        <mxCell id="BfrXMWinJ_1U5JVry1l_-3" value="S2" style="ellipse;whiteSpace=wrap;html=1;aspect=fixed;" vertex="1" parent="1">
          <mxGeometry x="260" y="470" width="70" height="70" as="geometry" />
        </mxCell>
        <mxCell id="BfrXMWinJ_1U5JVry1l_-11" value="" style="endArrow=none;html=1;rounded=0;" edge="1" parent="1">
          <mxGeometry width="50" height="50" relative="1" as="geometry">
            <mxPoint x="360" y="500" as="sourcePoint" />
            <mxPoint x="440" y="440" as="targetPoint" />
          </mxGeometry>
        </mxCell>
        <mxCell id="BfrXMWinJ_1U5JVry1l_-12" value="" style="endArrow=none;html=1;rounded=0;" edge="1" parent="1">
          <mxGeometry width="50" height="50" relative="1" as="geometry">
            <mxPoint x="330" y="500" as="sourcePoint" />
            <mxPoint x="360" y="500" as="targetPoint" />
          </mxGeometry>
        </mxCell>
        <mxCell id="BfrXMWinJ_1U5JVry1l_-13" value="" style="endArrow=none;html=1;rounded=0;" edge="1" parent="1">
          <mxGeometry width="50" height="50" relative="1" as="geometry">
            <mxPoint x="450" y="440" as="sourcePoint" />
            <mxPoint x="440" y="440" as="targetPoint" />
          </mxGeometry>
        </mxCell>
        <mxCell id="BfrXMWinJ_1U5JVry1l_-14" value="A1" style="ellipse;whiteSpace=wrap;html=1;aspect=fixed;" vertex="1" parent="1">
          <mxGeometry x="450" y="400" width="70" height="70" as="geometry" />
        </mxCell>
        <mxCell id="BfrXMWinJ_1U5JVry1l_-17" value="" style="endArrow=none;html=1;rounded=0;exitX=1;exitY=0.5;exitDx=0;exitDy=0;" edge="1" parent="1" source="BfrXMWinJ_1U5JVry1l_-14">
          <mxGeometry width="50" height="50" relative="1" as="geometry">
            <mxPoint x="460" y="450" as="sourcePoint" />
            <mxPoint x="530" y="440" as="targetPoint" />
            <Array as="points">
              <mxPoint x="520" y="440" />
            </Array>
          </mxGeometry>
        </mxCell>
        <mxCell id="BfrXMWinJ_1U5JVry1l_-19" value="" style="endArrow=none;html=1;rounded=0;" edge="1" parent="1">
          <mxGeometry width="50" height="50" relative="1" as="geometry">
            <mxPoint x="560" y="470" as="sourcePoint" />
            <mxPoint x="530" y="440" as="targetPoint" />
          </mxGeometry>
        </mxCell>
        <mxCell id="BfrXMWinJ_1U5JVry1l_-23" value="" style="endArrow=none;html=1;rounded=0;" edge="1" parent="1">
          <mxGeometry width="50" height="50" relative="1" as="geometry">
            <mxPoint x="560" y="469" as="sourcePoint" />
            <mxPoint x="590" y="469" as="targetPoint" />
          </mxGeometry>
        </mxCell>
        <mxCell id="BfrXMWinJ_1U5JVry1l_-25" value="G2" style="ellipse;whiteSpace=wrap;html=1;aspect=fixed;" vertex="1" parent="1">
          <mxGeometry x="590" y="430" width="70" height="70" as="geometry" />
        </mxCell>
        <mxCell id="BfrXMWinJ_1U5JVry1l_-26" value="" style="endArrow=none;html=1;rounded=0;" edge="1" parent="1">
          <mxGeometry width="50" height="50" relative="1" as="geometry">
            <mxPoint x="660" y="469" as="sourcePoint" />
            <mxPoint x="690" y="469" as="targetPoint" />
          </mxGeometry>
        </mxCell>
        <mxCell id="BfrXMWinJ_1U5JVry1l_-28" value="W2" style="ellipse;whiteSpace=wrap;html=1;aspect=fixed;" vertex="1" parent="1">
          <mxGeometry x="690" y="430" width="70" height="70" as="geometry" />
        </mxCell>
        <mxCell id="BfrXMWinJ_1U5JVry1l_-29" value="" style="shape=flexArrow;endArrow=classic;html=1;rounded=0;" edge="1" parent="1">
          <mxGeometry width="50" height="50" relative="1" as="geometry">
            <mxPoint x="280" y="730" as="sourcePoint" />
            <mxPoint x="370" y="730" as="targetPoint" />
          </mxGeometry>
        </mxCell>
        <mxCell id="BfrXMWinJ_1U5JVry1l_-30" value="Das ergibt SIL1" style="rounded=1;whiteSpace=wrap;html=1;" vertex="1" parent="1">
          <mxGeometry x="370" y="700" width="120" height="60" as="geometry" />
        </mxCell>
        <mxCell id="BfrXMWinJ_1U5JVry1l_-31" value="Wegen Aufenthaltsdauer des Personals muss Auftraggeber&lt;br&gt;gefragt werden.&lt;br&gt;Das sollte entweder A1 (selten bis öfter) oder&lt;p style=&quot;margin:0cm&quot;&gt;&lt;span style=&quot;font-size:11.0pt;font-family:&amp;quot;Calibri&amp;quot;,sans-serif&quot;&gt;A2 (häufig bis dauernd) sein&lt;/span&gt;&lt;/p&gt;" style="rounded=1;whiteSpace=wrap;html=1;" vertex="1" parent="1">
          <mxGeometry x="490" y="580" width="230" height="90" as="geometry" />
        </mxCell>
        <mxCell id="BfrXMWinJ_1U5JVry1l_-32" value="" style="shape=flexArrow;endArrow=classic;html=1;rounded=0;exitX=0.777;exitY=0.977;exitDx=0;exitDy=0;exitPerimeter=0;" edge="1" parent="1" source="BfrXMWinJ_1U5JVry1l_-14">
          <mxGeometry width="50" height="50" relative="1" as="geometry">
            <mxPoint x="480" y="480" as="sourcePoint" />
            <mxPoint x="610" y="570" as="targetPoint" />
          </mxGeometry>
        </mxCell>
        <mxCell id="BfrXMWinJ_1U5JVry1l_-34" value="&lt;p class=&quot;MsoNormal&quot;&gt;&lt;b&gt;Schadensausmaß&lt;/b&gt;:&amp;nbsp;&lt;b style=&quot;background-color: initial;&quot;&gt;S2&amp;nbsp;&lt;/b&gt;&lt;span style=&quot;background-color: initial;&quot;&gt;Tod einer Person, schwere irreversible Verletzungen einer oder mehrerer&amp;nbsp;&lt;/span&gt;&lt;span style=&quot;background-color: initial;&quot;&gt;Personen, oder vorübergehende schädliche Umwelteinflüsse.&lt;/span&gt;&lt;/p&gt;&lt;p style=&quot;margin: 0cm;&quot;&gt;&lt;br&gt;&lt;/p&gt;&lt;b&gt;Aufenthaltsdauer&lt;/b&gt;:&amp;nbsp;&lt;b style=&quot;background-color: initial;&quot;&gt;A1&amp;nbsp;&lt;/b&gt;&lt;span style=&quot;background-color: initial;&quot;&gt;selten bis öfter&amp;nbsp;&lt;/span&gt;&lt;span style=&quot;background-color: initial;&quot;&gt;&lt;br&gt;&lt;/span&gt;&lt;p style=&quot;margin:0cm&quot;&gt;&lt;br&gt;&lt;/p&gt;&lt;p style=&quot;margin:0cm&quot;&gt;&lt;b&gt;Gefahrenabwehr: G2&amp;nbsp;&lt;/b&gt;kaum möglich&lt;/p&gt;&lt;p style=&quot;margin:0cm&quot;&gt;&lt;br&gt;&lt;/p&gt;&lt;p style=&quot;margin:0cm&quot;&gt;&lt;b&gt;Eintrittswahrscheinlichkeit: W2&amp;nbsp;&lt;/b&gt;gering&amp;nbsp;&lt;/p&gt;&lt;p style=&quot;margin: 0cm;&quot;&gt;&lt;br&gt;&lt;/p&gt;" style="rounded=0;whiteSpace=wrap;html=1;align=left;" vertex="1" parent="1">
          <mxGeometry y="580" width="330" height="230" as="geometry" />
        </mxCell>
      </root>
    </mxGraphModel>
  </diagram>
</mxfile>
